<svg xmlns="http://www.w3.org/2000/svg" xmlns:xlink="http://www.w3.org/1999/xlink"
     viewBox="0 0 337.33 291.79">
  <defs>
    <style>
      .cls-1{fill:none;}.cls-2{fill:#c7c7c7;}.cls-3{clip-path:url(#clip-path);}.cls-4{fill:url(#uv5);}.cls-5{clip-path:url(#clip-path-2);}.cls-6{fill:url(#uv5-2);}.cls-7{clip-path:url(#clip-path-3);}.cls-8{fill:url(#uv5-3);}.cls-9{clip-path:url(#clip-path-4);}.cls-10{fill:url(#uv5-4);}.cls-11{clip-path:url(#clip-path-5);}.cls-12{fill:url(#uv5-5);}.cls-13{fill:#f5f4f5;}.cls-14{clip-path:url(#clip-path-6);}.cls-15{fill:url(#uv5-6);}.cls-16{clip-path:url(#clip-path-7);}.cls-17{fill:url(#uv5-7);}.cls-18{clip-path:url(#clip-path-8);}.cls-19{fill:url(#uv5-8);}.cls-20{clip-path:url(#clip-path-9);}.cls-21{fill:url(#uv5-9);}.cls-22{clip-path:url(#clip-path-10);}.cls-23{fill:url(#uv5-10);}.cls-24{clip-path:url(#clip-path-11);}.cls-25{fill:url(#uv5-11);}.cls-26{clip-path:url(#clip-path-12);}.cls-27{fill:url(#uv5-12);}.cls-28{clip-path:url(#clip-path-13);}.cls-29{fill:url(#uv5-13);}.cls-30{clip-path:url(#clip-path-14);}.cls-31{fill:url(#uv5-14);}.cls-32{clip-path:url(#clip-path-15);}.cls-33{fill:url(#uv5-15);}.cls-34{fill:url(#uv5-16);}.cls-35{fill:#48c0ec;}
    </style>
    <clipPath id="clip-path">
      <path class="cls-1"
            d="M123.75,284.91h0a37.64,37.64,0,0,1,5-11.66c37.45-93.06,145.64-135,203.65-145.07l0-.28a158.77,158.77,0,0,0-20.84-9.35C284.33,126,147.39,168.67,123.75,284.91"/>
    </clipPath>
    <linearGradient id="uv5" x1="-611.94" y1="244.82" x2="-607.72" y2="244.82"
                    gradientTransform="translate(30388.6 -11906.59) scale(49.46)" gradientUnits="userSpaceOnUse">
      <stop offset="0" stop-color="#47c0eb"/>
      <stop offset="0.5" stop-color="#34aae1"/>
      <stop offset="1" stop-color="#2c94d1"/>
    </linearGradient>
    <clipPath id="clip-path-2">
      <path class="cls-1"
            d="M126.64,264.88c-.72,4.83-1.46,9.68-2.16,14.5C142.86,174.89,250,128.47,295.2,113.38a209.53,209.53,0,0,0-23.88-4.86c-48.19,20.91-131.07,69-144.68,156.36"/>
    </clipPath>
    <linearGradient id="uv5-2" x1="-612.5" y1="247.75" x2="-608.28" y2="247.75"
                    gradientTransform="translate(24899.69 -9827.16) scale(40.45)" xlink:href="#uv5"/>
    <clipPath id="clip-path-3">
      <path class="cls-1"
            d="M229.91,106.72C171,144.22,138.44,187.79,130.35,240l-2.17,14.52c4-22.83,16.25-92.3,125.74-147.71-4.18-.25-8.35-.37-12.48-.37q-5.82,0-11.53.32"/>
    </clipPath>
    <linearGradient id="uv5-3" x1="-613.54" y1="253.37" x2="-609.32" y2="253.37"
                    gradientTransform="translate(18409.91 -7369.32) scale(29.8)" xlink:href="#uv5"/>
    <clipPath id="clip-path-4">
      <path class="cls-1"
            d="M188.92,114.12c-23.63,23.33-46.59,51.46-54.54,98.83-.71,4.83-1.45,9.66-2.17,14.51,3.64-20.66,12.15-69,78-118.59a145.93,145.93,0,0,0-21.29,5.25"/>
    </clipPath>
    <linearGradient id="uv5-4" x1="-615.95" y1="266.54" x2="-611.73" y2="266.54"
                    gradientTransform="translate(11517.07 -4758.34) scale(18.48)" xlink:href="#uv5"/>
    <clipPath id="clip-path-5">
      <path class="cls-1"
            d="M169.44,122.74a72.54,72.54,0,0,0-10,6.87C148.85,148,142.32,162.81,138.11,188l-2.18,14.51c2.67-15.14,8.21-46.65,39.32-82.89-2,1-3.94,2-5.81,3.09"/>
    </clipPath>
    <linearGradient id="uv5-5" x1="-622.15" y1="300.88" x2="-617.93" y2="300.88"
                    gradientTransform="translate(5932.63 -2642.25) scale(9.32)" xlink:href="#uv5"/>
  </defs>
  <path class="cls-2"
        d="M5,6.88l-.14.23C44.09,53.81,101.7,159.19,69,257.93a39.06,39.06,0,0,1-4.39,13.59c60.23-108.11-20.1-234-36.82-258.13A161.47,161.47,0,0,0,5,6.88"/>
  <path class="cls-2"
        d="M68.32,265.66C123.78,170.59,70,62.34,44.3,20.22A214.65,214.65,0,0,1,66.46,32.31C90.64,81,124.08,174.43,76.33,252.72q-4,6.48-8,12.94"/>
  <path class="cls-2"
        d="M82.08,243.43c12.11-20.76,49-84-.65-200.91a215.33,215.33,0,0,1,19.06,16c21.56,69,18.14,125.27-10.41,172Z"/>
  <path class="cls-2"
        d="M97,219.34c11-18.8,36.64-62.8,17.68-146A151.39,151.39,0,0,1,128,91.69c3.07,34.26,2.43,71.87-23,114.7l-8,13"/>
  <path class="cls-2"
        d="M110.75,197.11c8-13.78,24.75-42.45,24.39-91.91.94,2.11,1.78,4.22,2.54,6.33A76.46,76.46,0,0,1,141,123.65c-4,21.65-8.7,37.72-22.26,60.52Z"/>
  <g class="cls-3">
    <rect class="cls-4" x="123.75" y="118.55" width="208.71" height="166.36"/>
  </g>
  <g class="cls-5">
    <rect class="cls-6" x="124.48" y="108.52" width="170.72" height="170.86"/>
  </g>
  <g class="cls-7">
    <rect class="cls-8" x="128.18" y="106.4" width="125.73" height="148.07"/>
  </g>
  <g class="cls-9">
    <rect class="cls-10" x="132.21" y="108.87" width="78" height="118.59"/>
  </g>
  <g class="cls-11">
    <rect class="cls-12" x="135.93" y="119.65" width="39.31" height="82.88"/>
  </g>
</svg>
