<?xml version="1.0" encoding="utf-8"?>
<!-- Generator: Adobe Illustrator 23.0.6, SVG Export Plug-In . SVG Version: 6.00 Build 0)  -->
<svg version="1.1" id="Ebene_1" xmlns="http://www.w3.org/2000/svg" xmlns:xlink="http://www.w3.org/1999/xlink" x="0px" y="0px"
	 viewBox="0 0 1816.5 359.6" style="enable-background:new 0 0 1816.5 359.6;" xml:space="preserve">
<style type="text/css">
	.st0{fill:#00426B;}
	.st1{fill:#23A3DD;}
</style>
<title>mycloudogu_logo_white</title>
<path class="st0" d="M260.4,283.9H226c-4.1,0-7.5-3.7-7.5-7.8V149.2c0-28.7-6-36.2-26.9-36.2c-7.1,0-21.3,2.2-34.7,9.3
	c1.1,8.9,1.6,17.9,1.5,26.8V276c0,4.1-3.4,7.8-7.5,7.8h-34.3c-4.1,0-7.5-3.7-7.5-7.8V149.2c0-28.7-4.8-36.2-25.7-36.2
	c-7.8,0-19,4.1-34.3,12.3V276c0,4.1-3.4,7.8-7.5,7.8H7.5c-4.1,0-7.5-3.7-7.5-7.8V80.9c0-4.1,3.3-7.4,7.5-7.5h32.5
	c4.1,0,7.4,3.3,7.5,7.5v7.8C63,78.7,78.8,70.9,100.8,70.9c21.3,0,35.1,6.3,43.6,16.8c19-10.4,35.8-16.8,61.5-16.8
	c50.7,0,61.9,34.7,61.9,78.3V276C267.8,280.1,264.5,283.9,260.4,283.9z"/>
<path class="st0" d="M458.4,82.1l-62.3,217.8c-11.6,40.6-25.4,58.6-76.1,58.6c-12.3,0-31-2.2-39.5-4.9c-4.1-1.1-7.8-2.6-7.8-6.3
	v-23.9c0-4.1,3.4-6.7,7.5-6.7h0.7c10.5,0.4,31.7,2.2,42.1,2.2c16,0,24.2-4.5,29.5-23.9l3-11.2h-5.6c-10.8,0-24.3-2.6-32.5-31
	L268.5,82.1c-0.3-0.8-0.4-1.7-0.4-2.6c0-3.7,2.2-6,7.1-6h37.7c3.4,0,6.3,3.4,7.1,6.7L357.8,232c1.5,6.3,3,8.2,5.2,8.2h3.4
	l40.2-160.4c0.8-3.6,3.8-6.2,7.5-6.3h38c3.6,0,6.5,2.8,6.7,6.3C458.8,80.6,458.7,81.3,458.4,82.1z"/>
<path class="st1" d="M600.2,282c-8.6,2.2-25.4,4.9-48.1,4.9c-48.5,0-85-29.8-85-90.6v-34.7c0-60.8,36.5-90.6,85-90.6
	c22.8,0,39.5,2.6,48.1,4.8c6.3,1.5,7.8,3.7,7.8,9.7v24.2c0,3.7-3,5.6-6.7,5.6h-1.1c-14.9-1.9-23.9-2.6-48.1-2.6
	c-17.5,0-35.8,10.1-35.8,48.9v34.7c0,38.8,18.3,48.9,35.8,48.9c24.3,0,33.2-0.7,48.1-2.6h1.1c3.7,0,6.7,1.9,6.7,5.6v24.2
	C608,278.3,606.5,280.5,600.2,282z"/>
<path class="st1" d="M665.8,283.9h-34.7c-4.1,0-7.5-3.7-7.5-7.8V7.5c0-4.1,3.3-7.4,7.5-7.5h34.7c4,0,7.1,3.3,7.1,7.3
	c0,0.1,0,0.1,0,0.2V276C672.9,280.1,669.9,283.9,665.8,283.9z"/>
<path class="st1" d="M778.8,286.8c-58.6,0-89.2-39.5-89.2-92.9v-30.2c0-53.3,30.6-92.9,89.2-92.9s89.1,39.5,89.1,92.9V194
	C868,247.3,837.4,286.8,778.8,286.8z M818.8,163.8c0-30.6-13.8-50.4-39.9-50.4s-39.9,19.7-39.9,50.4V194c0,30.6,13.8,50.4,39.9,50.4
	s39.9-19.8,39.9-50.4V163.8z"/>
<path class="st1" d="M1047.8,283.9h-34.3c-4.1,0-7.4-3.3-7.5-7.5v-8.6c-19.4,12.7-34.7,18.6-58.6,18.6c-18.7,0-35.1-4.9-45.9-15.7
	c-13.8-13.8-18.7-36.9-18.7-67.9V81.3c0-4.1,3.4-7.8,7.5-7.8h34.3c4.1,0,7.5,3.7,7.5,7.8v121.6c0,18.6,1.5,29.5,8.6,35.8
	c5.2,4.5,11.6,6.7,23.1,6.7c13.8,0,31.7-9.3,42.2-14.9V81.3c0-4.1,3.4-7.8,7.5-7.8h34.3c4.1,0,7.5,3.7,7.5,7.8v195.1
	C1055.2,280.5,1051.9,283.8,1047.8,283.9z"/>
<path class="st1" d="M1233.1,277.1c-24.5,6.2-49.7,9.5-75,9.7c-60.1,0-89.1-35.4-89.1-93.6v-28.7c0-58.2,29.1-93.6,89.1-93.6
	c12,0.1,23.9,1,35.8,2.6v-66c0-4.1,3.3-7.4,7.5-7.5h34.4c4.1,0,7.4,3.3,7.5,7.5v259.6C1243.2,272.7,1241.7,274.9,1233.1,277.1z
	 M1193.9,113.8c-11.9-1.6-23.8-2.4-35.8-2.6c-32.1,0-39.9,22.7-39.9,53.3v28.7c0,30.6,7.8,53.3,39.9,53.3c13.4,0,28.7-1.1,35.8-2.6
	V113.8z"/>
<path class="st1" d="M1349.5,286.8c-58.6,0-89.2-39.5-89.2-92.9v-30.2c0-53.3,30.6-92.9,89.2-92.9s89.2,39.5,89.2,92.9V194
	C1438.6,247.3,1408.1,286.8,1349.5,286.8z M1389.4,163.8c0-30.6-13.8-50.4-39.9-50.4s-39.9,19.8-39.9,50.4V194
	c0,30.6,13.8,50.4,39.9,50.4s39.9-19.8,39.9-50.4V163.8z"/>
<path class="st1" d="M1630.8,107.4l-12.3,4.9c6,8.6,9.3,16.8,9.3,29.8v2.6c0,46.6-32.1,67.9-88.4,67.9c-19.8,0-33.2-3.4-40.7-6.3
	c-4.5,3-6.3,6.3-6.3,9.7c0,7.5,4.1,10.4,12.7,12.3l44,10.4c50.7,11.9,83.6,19.8,83.6,59.7v2.6c0,38-28,58.6-91.4,58.6
	c-60.4,0-92.5-22.8-92.5-61.9v-3.4c0-15.3,7.1-30.2,19-41c-10.4-7.8-16.8-20.9-16.8-34.3v-0.4c0-11.6,4.8-23.1,14.9-30.2
	c-11.2-11.6-15.3-25-15.3-43.6v-2.6c0-37.3,24.2-68.6,88.8-68.6h87.3c5.5-0.1,10.1,4.3,10.1,9.9c0,0.1,0,0.1,0,0.2v15.7
	C1636.8,104.8,1635.2,105.6,1630.8,107.4z M1583.4,298.4c0-8.2-4.8-13-44-22.4l-33.2-7.8c-5.6,7.8-9.3,12.7-9.3,26.1v3.4
	c0,15.3,9.3,24.6,44.4,24.6c35.8,0,42.2-7.8,42.2-21.3L1583.4,298.4z M1579.3,142.9c0-17.9-7.8-31.7-39.9-31.7
	c-31.7,0-40.3,14.2-40.3,31.7v3c0,13.8,5.6,29.5,40.3,29.5c31,0,39.9-10.8,39.9-29.5V142.9z"/>
<path class="st1" d="M1809,283.9h-34.3c-4.1,0-7.4-3.3-7.5-7.5v-8.6c-19.4,12.7-34.7,18.6-58.6,18.6c-18.7,0-35.1-4.9-45.9-15.7
	c-13.8-13.8-18.7-36.9-18.7-67.9V81.3c0-4.1,3.3-7.8,7.5-7.8h34.3c4.1,0,7.5,3.7,7.5,7.8v121.6c0,18.6,1.5,29.5,8.6,35.8
	c5.2,4.5,11.6,6.7,23.1,6.7c13.8,0,31.7-9.3,42.2-14.9V81.3c0-4.1,3.3-7.8,7.5-7.8h34.3c4.1,0,7.5,3.7,7.5,7.8v195.1
	C1816.5,280.5,1813.2,283.9,1809,283.9z"/>
</svg>