<?xml version="1.0" encoding="utf-8"?>
<!-- Generator: Adobe Illustrator 25.3.1, SVG Export Plug-In . SVG Version: 6.00 Build 0)  -->
<svg version="1.1" id="Ebene_1" xmlns="http://www.w3.org/2000/svg" xmlns:xlink="http://www.w3.org/1999/xlink" x="0px" y="0px"
	 viewBox="0 0 213.8 181.8" style="enable-background:new 0 0 213.8 181.8;" xml:space="preserve">
<style type="text/css">
	.st0{fill:#C7C7C6;}
	.st1{clip-path:url(#SVGID_2_);fill:url(#SVGID_3_);}
	.st2{clip-path:url(#SVGID_5_);fill:url(#SVGID_6_);}
	.st3{clip-path:url(#SVGID_8_);fill:url(#SVGID_9_);}
	.st4{clip-path:url(#SVGID_11_);fill:url(#SVGID_12_);}
	.st5{clip-path:url(#SVGID_14_);fill:url(#SVGID_15_);}
</style>
<g>
	<path class="st0" d="M0.1,0L0,0.1C25,30,61.8,97.2,41,160.3c-0.4,3.2-1.4,6.1-2.8,8.7C76.6,99.9,25.3,19.6,14.6,4.2
		C9.8,2.4,4.9,1,0.1,0"/>
	<path class="st0" d="M40.5,165.2C75.9,104.5,41.6,35.4,25.2,8.5c4.8,2.3,9.6,4.9,14.1,7.7C54.8,47.3,76.1,107,45.6,157
		C43.9,159.7,42.2,162.5,40.5,165.2"/>
	<path class="st0" d="M49.3,151c7.7-13.3,31.3-53.6-0.4-128.3C53.2,26,57.3,29.4,61,33c13.8,44.1,11.6,80-6.6,109.8L49.3,151z"/>
	<path class="st0" d="M58.8,135.6c7-12,23.4-40.1,11.3-93.2c3.2,3.8,6.1,7.7,8.5,11.7c2,21.9,1.5,45.9-14.7,73.2
		C62.2,130.1,60.5,132.9,58.8,135.6"/>
	<path class="st0" d="M67.6,121.5c5.1-8.8,15.8-27.1,15.6-58.7c0.6,1.3,1.1,2.7,1.6,4c1,2.7,1.7,5.3,2.1,7.7
		c-2.5,13.8-5.6,24.1-14.2,38.6L67.6,121.5z"/>
	<g>
		<defs>
			<path id="SVGID_1_" d="M75.7,181.8L75.7,181.8c0.6-2.7,1.7-5.2,3.3-7.7c24.8-61.6,96.4-89.3,134.8-96l0-0.2
				c-4.3-2.4-9-4.4-13.8-6.2C182,76.6,91.3,104.8,75.7,181.8"/>
		</defs>
		<clipPath id="SVGID_2_">
			<use xlink:href="#SVGID_1_"  style="overflow:visible;"/>
		</clipPath>
		
			<linearGradient id="SVGID_3_" gradientUnits="userSpaceOnUse" x1="-306.7593" y1="394.7581" x2="-304.2159" y2="394.7581" gradientTransform="matrix(54.3221 0 0 -54.3221 16739.459 21570.8125)">
			<stop  offset="0" style="stop-color:#45BFEA"/>
			<stop  offset="0.5" style="stop-color:#2FA9E0"/>
			<stop  offset="1" style="stop-color:#2893D1"/>
		</linearGradient>
		<rect x="75.7" y="71.7" class="st1" width="138.2" height="110.1"/>
	</g>
	<g>
		<defs>
			<path id="SVGID_4_" d="M77.6,168.5c-0.5,3.2-1,6.4-1.4,9.6c12.2-69.2,83.1-99.9,113-109.9c-5.2-1.4-10.5-2.4-15.8-3.2
				C141.4,78.9,86.6,110.7,77.6,168.5"/>
		</defs>
		<clipPath id="SVGID_5_">
			<use xlink:href="#SVGID_4_"  style="overflow:visible;"/>
		</clipPath>
		
			<linearGradient id="SVGID_6_" gradientUnits="userSpaceOnUse" x1="-305.2708" y1="395.9162" x2="-302.7246" y2="395.9162" gradientTransform="matrix(44.3853 0 0 -44.3853 13625.6709 17694.4355)">
			<stop  offset="0" style="stop-color:#45BFEA"/>
			<stop  offset="0.5" style="stop-color:#2FA9E0"/>
			<stop  offset="1" style="stop-color:#2893D1"/>
		</linearGradient>
		<rect x="76.1" y="65" class="st2" width="113" height="113.1"/>
	</g>
	<g>
		<defs>
			<path id="SVGID_7_" d="M145.9,63.8c-39,24.8-60.6,53.7-65.9,88.2l-1.4,9.6c2.7-15.1,10.8-61.1,83.2-97.8
				c-2.8-0.2-5.5-0.2-8.3-0.2C151,63.6,148.5,63.7,145.9,63.8"/>
		</defs>
		<clipPath id="SVGID_8_">
			<use xlink:href="#SVGID_7_"  style="overflow:visible;"/>
		</clipPath>
		
			<linearGradient id="SVGID_9_" gradientUnits="userSpaceOnUse" x1="-302.3176" y1="398.1338" x2="-299.7714" y2="398.1338" gradientTransform="matrix(32.6903 0 0 -32.6903 9961.4385 13127.7422)">
			<stop  offset="0" style="stop-color:#45BFEA"/>
			<stop  offset="0.5" style="stop-color:#2FA9E0"/>
			<stop  offset="1" style="stop-color:#2893D1"/>
		</linearGradient>
		<rect x="78.6" y="63.6" class="st3" width="83.2" height="98"/>
	</g>
	<g>
		<defs>
			<path id="SVGID_10_" d="M118.8,68.7c-15.6,15.4-30.8,34.1-36.1,65.4c-0.5,3.2-1,6.4-1.4,9.6c2.4-13.7,8-45.7,51.6-78.5
				C128,66.1,123.2,67.3,118.8,68.7"/>
		</defs>
		<clipPath id="SVGID_11_">
			<use xlink:href="#SVGID_10_"  style="overflow:visible;"/>
		</clipPath>
		
			<linearGradient id="SVGID_12_" gradientUnits="userSpaceOnUse" x1="-295.4908" y1="403.173" x2="-292.9446" y2="403.173" gradientTransform="matrix(20.2781 0 0 -20.2781 6073.2446 8280.0889)">
			<stop  offset="0" style="stop-color:#45BFEA"/>
			<stop  offset="0.5" style="stop-color:#2FA9E0"/>
			<stop  offset="1" style="stop-color:#2893D1"/>
		</linearGradient>
		<rect x="81.3" y="65.3" class="st4" width="51.6" height="78.5"/>
	</g>
	<g>
		<defs>
			<path id="SVGID_13_" d="M105.9,74.4c-2.5,1.4-4.7,2.9-6.6,4.5c-7,12.2-11.3,22-14.1,38.7l-1.4,9.6c1.8-10,5.4-30.9,26-54.9
				C108.4,73,107.1,73.7,105.9,74.4"/>
		</defs>
		<clipPath id="SVGID_14_">
			<use xlink:href="#SVGID_13_"  style="overflow:visible;"/>
		</clipPath>
		
			<linearGradient id="SVGID_15_" gradientUnits="userSpaceOnUse" x1="-277.7022" y1="416.0602" x2="-275.1562" y2="416.0602" gradientTransform="matrix(10.2218 0 0 -10.2218 2922.3333 4352.7075)">
			<stop  offset="0" style="stop-color:#45BFEA"/>
			<stop  offset="0.5" style="stop-color:#2FA9E0"/>
			<stop  offset="1" style="stop-color:#2893D1"/>
		</linearGradient>
		<rect x="83.7" y="72.4" class="st5" width="26" height="54.9"/>
	</g>
</g>
</svg>
